<svg width="140" height="25" viewBox="0 0 140 25" fill="none" xmlns="http://www.w3.org/2000/svg">
  <path d="M139.998 6.86456V23.9123H135.496V22.1062C134.687 22.7997 133.819 23.4246 132.811 23.8437C131.869 24.1943 130.928 24.4001 129.92 24.4001C127.639 24.4001 125.484 23.4932 123.873 21.8242C122.196 20.1553 121.32 17.8614 121.386 15.4913C121.32 13.0603 122.196 10.7588 123.873 9.02125C125.418 7.35229 127.639 6.44541 129.854 6.514C130.861 6.514 131.935 6.72738 132.877 7.07032C133.819 7.48947 134.76 8.04579 135.496 8.81549V6.86456H139.998ZM135.695 15.2856C135.761 13.9595 135.224 12.6411 134.289 11.6657C133.348 10.7588 132.068 10.2711 130.795 10.3473C129.515 10.2711 128.242 10.8274 127.301 11.7343C126.359 12.7097 125.888 13.9595 125.888 15.3541C125.822 16.7488 126.359 18.0672 127.301 18.974C128.242 19.8809 129.449 20.4372 130.795 20.3686C132.068 20.4372 133.348 19.8809 134.289 18.974C135.224 17.9986 135.761 16.6802 135.695 15.2856Z" fill="#26D07C"/>
  <path d="M120.983 6.86429V10.5528H118.298V23.912H113.796V10.5528H111.516V6.86429H113.796V0.599976H118.298V6.86429H120.983Z" fill="#26D07C"/>
  <path d="M109.564 6.864V23.9118H105.062V22.1056C104.26 22.7991 103.385 23.424 102.377 23.8432C101.435 24.1937 100.494 24.3995 99.4859 24.3995C97.2055 24.3995 95.05 23.4926 93.439 21.8237C91.7617 20.1547 90.8201 17.8608 90.8863 15.4908C90.8201 13.0597 91.6955 10.7582 93.3728 9.02069C95.793 6.58203 99.2873 5.88854 102.377 7.06977C103.319 7.48891 104.26 8.04523 104.996 8.81493L105.062 6.864H109.564ZM105.268 15.285C105.334 13.959 104.797 12.6406 103.856 11.6651C102.848 10.7582 101.568 10.2705 100.295 10.3467C99.0151 10.2705 97.7425 10.8268 96.8009 11.7337C95.8592 12.7092 95.3884 13.959 95.3884 15.3536C95.3222 16.7482 95.8592 18.0666 96.8009 18.9735C97.7425 19.8804 98.9489 20.4367 100.295 20.3681C101.634 20.4367 102.848 19.8804 103.856 18.9735C104.797 17.998 105.334 16.6796 105.268 15.285Z" fill="#26D07C"/>
  <path d="M88.139 6.17068C89.2793 8.11399 89.8825 10.4155 89.8163 12.6408C89.8163 14.3097 89.4853 15.9787 88.8747 17.5105C88.2715 18.9051 87.396 20.2235 86.322 21.1989C85.3142 22.1744 84.1077 22.7993 82.7615 23.2184C81.4888 23.569 79.2672 23.7748 76.1113 23.7748H70.5352V0.881836H76.0451C79.6056 0.881836 82.2245 1.29336 83.9091 2.13165C85.6526 3.03853 87.1312 4.42551 88.139 6.17068ZM84.3063 16.6036C84.9169 15.3538 85.248 14.0354 85.1818 12.6408C85.1818 10.2021 84.4461 8.32737 83.0337 6.93276C81.7537 5.75154 79.6056 5.12663 76.7881 5.12663L75.1697 5.05042V19.5986H77.3251C79.407 19.5986 80.9518 19.3928 81.9597 18.9051C82.9675 18.4173 83.7693 17.579 84.3063 16.6036Z" fill="#26D07C"/>
  <path d="M67.2457 9.92787C67.7827 11.5968 68.0475 13.3344 67.9813 15.0719V23.8435H65.8333V15.6359C65.8995 14.3098 65.8333 12.9914 65.5611 11.734C65.3625 10.7585 64.8254 9.85928 64.0898 9.15817C63.2144 8.53326 62.2066 8.25891 61.1987 8.3275C59.9187 8.3275 58.6461 8.81523 57.6382 9.6459C56.6304 10.4842 55.8874 11.5968 55.5564 12.9152C55.2842 14.447 55.218 15.9788 55.218 17.5792V23.8435H52.9375V6.72713H55.1518V9.78308C55.961 8.67044 56.9688 7.77118 58.1091 7.13865C59.1831 6.58233 60.3895 6.30798 61.6033 6.30798C62.8171 6.30798 64.0162 6.58233 65.0241 7.28345C66.0319 7.90835 66.7749 8.81523 67.2457 9.92787Z" fill="#26D07C"/>
  <path d="M47.9649 15.3544C48.0311 13.472 47.2955 11.6659 46.0154 10.4161C44.5368 9.09004 42.7933 8.39654 40.9763 8.39654C39.7699 8.39654 38.6296 8.67089 37.5482 9.30342C36.4742 9.85974 35.6723 10.759 35.0691 11.803C33.7891 13.8912 33.7891 16.5356 35.0691 18.6923C35.6723 19.7363 36.5404 20.6432 37.6218 21.2681C38.6296 21.893 39.8361 22.175 41.0425 22.175C42.249 22.175 43.4628 21.893 44.5368 21.2681C45.6108 20.7118 46.4862 19.8811 47.0895 18.8371C47.6927 17.793 47.9649 16.6042 47.9649 15.3544ZM49.8481 6.79617V23.7754H47.6927V20.849C46.8246 21.893 45.7506 22.7999 44.5368 23.3562C43.3303 23.9125 42.0503 24.1945 40.7115 24.1945C38.3574 24.2631 36.0769 23.2876 34.3923 21.5501C32.7151 19.8811 31.7734 17.5796 31.7734 15.1486C31.7734 12.7175 32.7151 10.4846 34.3923 8.88428C36.0769 7.13911 38.3574 6.23985 40.7115 6.23985C43.4628 6.17127 46.0154 7.42024 47.6265 9.78353V6.659L49.8481 6.79617Z" fill="#26D07C"/>
  <path d="M27.6086 13.5474C27.4026 12.5033 26.9392 11.5964 26.3286 10.7582C25.7254 9.99607 24.9235 9.43975 24.0481 9.0892C23.1065 8.67005 22.0987 8.46429 21.0908 8.46429C19.4798 8.3957 17.9349 9.02061 16.7211 10.0647C15.7207 10.9715 15.0439 12.2214 14.7128 13.5474H27.6086ZM28.1456 9.57693C29.4183 11.2459 30.0951 13.2654 30.0289 15.4221H14.5069C14.5069 17.2358 15.1763 19.042 16.4563 20.2918C17.6627 21.5492 19.3474 22.2427 21.0908 22.1741C21.9662 22.1741 22.8417 22.037 23.6435 21.6864C24.4527 21.4121 25.1221 20.9929 25.7916 20.5052C26.4684 19.8803 27.1378 19.042 27.6086 18.1351L29.4918 19.1106C28.9548 20.2232 28.2118 21.1987 27.3364 21.9684C26.5346 22.6619 25.6592 23.2182 24.6513 23.6373C23.5773 24.0565 22.3708 24.1937 21.2232 24.1937C18.4057 24.1937 16.1841 23.2868 14.5731 21.4806C13.0282 19.8041 12.1602 17.5788 12.1602 15.2849C12.1602 10.3466 16.0517 6.3076 20.8922 6.3076H21.0908C23.8421 6.17042 26.4684 7.42024 28.1456 9.57693Z" fill="#26D07C"/>
  <path d="M11.3509 21.55V23.7753H0V0.737549H2.28049V21.55H11.3509Z" fill="#26D07C"/>
</svg>
